<svg width="24" height="24" viewBox="0 0 24 24" fill="none" xmlns="http://www.w3.org/2000/svg">
    <path fill-rule="evenodd" clip-rule="evenodd" d="M9.5 3C9.5 2.72386 9.72386 2.5 10 2.5H14C14.2761 2.5 14.5 2.72386 14.5 3V21C14.5 21.2761 14.2761 21.5 14 21.5H10C9.72386 21.5 9.5 21.2761 9.5 21V3ZM10.5 3.5V20.5H13.5V3.5H10.5Z" fill="#414141" />
    <path fill-rule="evenodd" clip-rule="evenodd" d="M17.5 8C17.5 7.72386 17.7239 7.5 18 7.5H22C22.2761 7.5 22.5 7.72386 22.5 8V21C22.5 21.2761 22.2761 21.5 22 21.5H18C17.7239 21.5 17.5 21.2761 17.5 21V8ZM18.5 8.5V20.5H21.5V8.5H18.5Z" fill="#414141" />
    <path fill-rule="evenodd" clip-rule="evenodd" d="M1.5 13C1.5 12.7239 1.72386 12.5 2 12.5H6C6.27614 12.5 6.5 12.7239 6.5 13V21C6.5 21.2761 6.27614 21.5 6 21.5H2C1.72386 21.5 1.5 21.2761 1.5 21V13ZM2.5 13.5V20.5H5.5V13.5H2.5Z" fill="#414141" />
</svg>