<svg width="24" height="24" viewBox="0 0 24 24" fill="none" xmlns="http://www.w3.org/2000/svg">
    <path fill-rule="evenodd" clip-rule="evenodd" d="M13.6464 1.64645C13.8417 1.45118 14.1583 1.45118 14.3536 1.64645L18.3536 5.64645C18.5488 5.84171 18.5488 6.15829 18.3536 6.35355L7.35355 17.3536C7.25979 17.4473 7.13261 17.5 7 17.5H3C2.72386 17.5 2.5 17.2761 2.5 17V13C2.5 12.8674 2.55268 12.7402 2.64645 12.6464L13.6464 1.64645ZM3.5 13.2071V16.5H6.79289L17.2929 6L14 2.70711L3.5 13.2071Z" fill="#414141" />
    <path fill-rule="evenodd" clip-rule="evenodd" d="M2.5 22C2.5 21.7239 2.72386 21.5 3 21.5H21C21.2761 21.5 21.5 21.7239 21.5 22C21.5 22.2761 21.2761 22.5 21 22.5H3C2.72386 22.5 2.5 22.2761 2.5 22Z" fill="#414141" />
</svg>