<svg width="64" height="64" viewBox="0 0 64 64" fill="none" xmlns="http://www.w3.org/2000/svg">
    <path d="M37 11.48C36.945 11.49 36.89 11.505 36.84 11.52C36.36 11.605 35.975 11.955 35.84 12.42C35.705 12.89 35.845 13.39 36.2 13.72C36.84 14.36 37.655 15 38.84 15.2C39.805 15.36 41.54 15.32 43.68 15.32C43.73 15.65 43.76 15.965 43.84 16.44C44.01 17.45 44.27 18.88 44.6 20.48H22.56L20.64 16.64C20.715 16.635 20.805 16.64 20.88 16.64C24.21 16.64 25.6 15.735 25.6 14.84C25.6 14.07 24.945 14.07 23.92 14.2H15.76C14.35 14.2 14.08 14.85 14.08 16C14.08 18.945 15.83 17.97 18.08 17.2L20.32 21.76L17.32 27.72C15.91 27.18 14.395 26.88 12.8 26.88C5.745 26.88 0 32.625 0 39.68C0 46.735 5.745 52.48 12.8 52.48C19.425 52.48 24.88 47.42 25.52 40.96H30.72C30.98 40.955 31.23 40.87 31.44 40.72C31.465 40.71 31.495 40.695 31.52 40.68C31.535 40.665 31.545 40.655 31.56 40.64C31.585 40.63 31.615 40.615 31.64 40.6C31.64 40.585 31.64 40.575 31.64 40.56C31.655 40.545 31.665 40.535 31.68 40.52C31.725 40.47 31.765 40.415 31.8 40.36L45.48 24.4C45.735 25.48 46.045 26.63 46.36 27.84C41.705 29.76 38.4 34.345 38.4 39.68C38.4 46.735 44.145 52.48 51.2 52.48C58.255 52.48 64 46.735 64 39.68C64 32.625 58.255 26.88 51.2 26.88C50.375 26.88 49.58 26.97 48.8 27.12C48.27 25.045 47.8 23.1 47.44 21.44C46.95 19.17 46.575 17.33 46.36 16.04C46.25 15.395 46.21 14.87 46.16 14.52C46.135 14.345 46.09 14.21 46.08 14.12C46.07 14.03 46.08 13.89 46.08 14.08C46.08 13.375 45.505 12.8 44.8 12.8C41.6 12.8 39.975 12.76 39.24 12.64C38.505 12.52 38.68 12.52 38.04 11.88C37.775 11.595 37.39 11.45 37 11.48ZM23.84 23.04H43.32L31 37.36L23.84 23.04ZM21.76 24.64L28.64 38.4H25.52C25.125 34.39 22.88 30.94 19.64 28.88L21.76 24.64ZM12.8 29.44C13.995 29.44 15.135 29.625 16.2 30L11.64 39.12C11.445 39.52 11.47 39.99 11.71 40.365C11.945 40.735 12.355 40.965 12.8 40.96H22.96C22.33 46.02 18.035 49.92 12.8 49.92C7.13 49.92 2.56 45.35 2.56 39.68C2.56 34.01 7.13 29.44 12.8 29.44ZM51.2 29.44C56.87 29.44 61.44 34.01 61.44 39.68C61.44 45.35 56.87 49.92 51.2 49.92C45.53 49.92 40.96 45.35 40.96 39.68C40.96 35.51 43.44 31.96 47 30.36C47.825 33.345 48.81 36.605 50 40.08C50.085 40.58 50.455 40.98 50.94 41.105C51.43 41.23 51.945 41.06 52.26 40.665C52.575 40.27 52.63 39.73 52.4 39.28C51.22 35.83 50.245 32.565 49.44 29.6C50.01 29.5 50.6 29.44 51.2 29.44ZM18.48 31.2C20.885 32.81 22.585 35.385 22.96 38.4H14.88L18.48 31.2Z" fill="#61B6F6" />
</svg>